<?xml version="1.0" standalone="no"?><!DOCTYPE svg PUBLIC "-//W3C//DTD SVG 1.1//EN" "http://www.w3.org/Graphics/SVG/1.1/DTD/svg11.dtd"><svg t="1591843272905" class="icon" viewBox="0 0 1024 1024" version="1.1" xmlns="http://www.w3.org/2000/svg" p-id="4408" xmlns:xlink="http://www.w3.org/1999/xlink" width="200" height="200"><defs><style type="text/css"></style></defs><path d="M17.2995 364.9014c46.2725-32.6717 88.4797-68.0643 126.6084-106.1919C111.2351 196.1011 70.3877 140.2931 21.3791 91.2691l53.0883-40.832c49.0076 49.0076 88.4961 98.0163 118.4481 147.0239 38.1123-46.2879 66.688-87.1363 85.76-122.5277l57.1679 40.8484c-35.3915 57.1843-70.784 107.5517-106.1765 151.1035C278.6591 373.077 303.1716 533.717 303.1716 748.7887c0 144.3041-51.7284 217.8243-155.1841 220.544-38.1276 0-70.8004-1.3599-98.0163-4.0796-2.7197-27.2323-6.8157-54.4645-12.2563-81.6804 32.6717 5.4395 65.3435 8.1603 98.0163 8.1603 62.6237 2.7197 95.2955-47.6324 98.0163-151.1035 0-68.0643-2.7197-130.688-8.1603-187.8723C173.8435 618.1007 119.3953 673.9251 62.2275 720.213c-13.6315-19.0556-28.6085-39.4721-44.928-61.2639 89.8396-68.0643 155.1841-132.0479 196.0325-191.9519-10.8964-51.7284-24.5125-98.0163-40.8484-138.8483-29.952 32.6717-65.3435 63.9836-106.1765 93.9203C49.9558 403.029 33.62 383.9734 17.2995 364.9014zM331.2671 164.8527l155.199488 0L486.466588 25.98912l73.535488 0 0 138.863616 204.992512 0L764.994588 25.98912l73.535488 0 0 138.863616 163.359744 0 0 69.439488L838.531072 234.292224 838.531072 356.805632l-73.535488 0L764.995584 234.293248 560.003072 234.293248 560.003072 356.805632l-73.535488 0L486.467584 234.293248 331.267072 234.293248 331.267072 164.852736zM372.8036 389.1087l575.295488 0 0 600.704-73.535488 0 0-69.424128L446.339072 920.388572l0 69.424128-73.535488 0L372.803584 389.108736zM446.3391 454.4532l0 172.224512 179.392512 0L625.731612 454.453248 446.339072 454.453248zM446.3391 692.0212l0 171.184128 179.392512 0L625.731612 692.021248 446.339072 692.021248zM874.5636 454.4532 695.171072 454.4532l0 172.224512 179.392512 0L874.563584 454.453248zM695.1711 692.0212l0 171.184128 179.392512 0L874.563612 692.021248 695.171072 692.021248z" p-id="4409"></path></svg>